HIERARCHY
ROOT Hips
{
	OFFSET 0.00000 0.00000 0.00000
	CHANNELS 6 Xposition Yposition Zposition Yrotation Zrotation Xrotation 
	JOINT Lumbar
	{
		OFFSET 0 0 0
		CHANNELS 3 Zrotation Xrotation Yrotation
		JOINT Neck
		{
			OFFSET 0.00 0.2701 0.00
			CHANNELS 3 Zrotation Xrotation Yrotation
			End Site
			{
				OFFSET 0.00 0.1379 0.00
			}
		}
		JOINT RightShoulder
		{
			OFFSET 0.0119 0.2289 0.1181
			CHANNELS 3 Zrotation Xrotation Yrotation
			JOINT RightElbow
			{
				OFFSET 0.00 -0.1475 0.00
				CHANNELS 2 Zrotation Yrotation
				JOINT RightWrist
				{
					OFFSET 0.00 -0.1605 0.00
					CHANNELS 2 Zrotation Xrotation
					End Site
					{
						OFFSET 0.0040 -0.1068 0.0006
					}
				}
			}
		}
		JOINT LeftShoulder
		{
			OFFSET 0.0119 0.2289 -0.1181
			CHANNELS 3 Zrotation Xrotation Yrotation
			JOINT LeftElbow
			{
				OFFSET 0.00 -0.1475 0.00
				CHANNELS 2 Zrotation Yrotation
				JOINT LeftWrist
				{
					OFFSET 0.00 -0.1605 0.00
					CHANNELS 2 Zrotation Xrotation
					End Site
					{
						OFFSET 0.0040 -0.1068 -0.0006
					}
				}
			}
		}
	}
	JOINT RightHip
	{
		OFFSET 0.0316 -0.0424 0.0458
		CHANNELS 3 Zrotation Xrotation Yrotation
		JOINT RightKnee
		{
			OFFSET 0.00 -0.2438 0.00
			CHANNELS 1 Zrotation
			JOINT RightAnkle
			{
				OFFSET 0.00 -0.2449 0.00
				CHANNELS 3 Zrotation Xrotation Yrotation
				End Site
				{
					OFFSET 0.1237 -0.0542 0.0051
				}
			}
		}
	}
	JOINT LeftHip
	{
		OFFSET 0.0316 -0.0424 -0.0458
		CHANNELS 3 Zrotation Xrotation Yrotation
		JOINT LeftKnee
		{
			OFFSET 0.00 -0.2438 0.00
			CHANNELS 1 Zrotation
			JOINT LeftAnkle
			{
				OFFSET 0.00 -0.2449 0.00
				CHANNELS 3 Zrotation Xrotation Yrotation
				End Site
				{
					OFFSET 0.1237 -0.0542 -0.0051
				}
			}
		}
	}
}
MOTION
Frames: 29
Frame Time: 0.02
0 0.57926 -0 -87.90907 0 2.83848 6.53569 -3.89812 -5.13959 -38.5514 4.02515 7.38022 27.05972 -20.13564 -10.62268 11.63954 85.06874 1.84004 2.86858 33.08752 3.72807 21.40091 8.74385 -80.51621 -10.52761 2.19321 5.59754 -0.63537 19.92485 -26.86464 13.21278 -10.94471 -14.14055 0.50137 -4.61623 1.71246 -17.50501 10.21357 7.98325 12.48282
-0.00057 0.57921 0.00048 -87.89433 0 2.76572 6.57371 -3.86086 -5.17837 -38.46195 4.10478 7.32032 27.09725 -20.14343 -10.46736 11.72563 85.00204 1.82713 2.84438 33.08289 3.73527 21.15621 8.8048 -80.48452 -10.52698 2.23283 5.51572 -0.52929 19.83688 -26.78321 13.21481 -10.92481 -14.10844 0.53143 -4.50444 1.60619 -17.65614 10.26486 8.05187 12.56199
-0.00115 0.57917 0.00097 -87.88057 0 2.69305 6.61185 -3.82343 -5.21678 -38.37309 4.18406 7.26115 27.13471 -20.15154 -10.3122 11.81163 84.93568 1.8142 2.82001 33.07747 3.74174 20.91427 8.86479 -80.45262 -10.52592 2.27171 5.43391 -0.42345 19.74981 -26.70158 13.21673 -10.90511 -14.07615 0.56096 -4.39283 1.5016 -17.80648 10.31607 8.12028 12.64077
-0.00172 0.57912 0.00146 -87.87028 0 2.62015 6.65087 -3.78486 -5.25384 -38.28615 4.26232 7.20432 27.17266 -20.16089 -10.15672 11.89784 84.87004 1.80099 2.79476 33.07024 3.74576 20.67904 8.922 -80.42263 -10.52356 2.307 5.35163 -0.31792 19.66527 -26.61861 13.21824 -10.88639 -14.04269 0.5888 -4.2812 1.40253 -17.95499 10.36729 8.18853 12.71875
-0.0023 0.57907 0.00192 -87.84124 0 2.54865 6.68525 -3.75222 -5.29774 -38.18954 4.34555 7.13506 27.20851 -20.1635 -10.0036 11.98263 84.80061 1.78918 2.77419 33.07425 3.76324 20.40592 8.9945 -80.38617 -10.52861 2.36012 5.27217 -0.21119 19.56707 -26.54304 13.22194 -10.86293 -14.01528 0.62575 -4.17007 1.27405 -18.11305 10.41827 8.25762 12.80096
-0.00285 0.57902 0.00244 -87.85212 0 2.47413 6.72939 -3.70712 -5.32736 -38.11312 4.41847 7.09221 27.24844 -20.18049 -9.84518 12.07051 84.73921 1.77445 2.74373 33.05337 3.7519 20.21478 9.03421 -80.36097 -10.51763 2.37627 5.18659 -0.10682 19.49807 -26.45166 13.22102 -10.84924 -13.97518 0.64325 -4.05772 1.20799 -18.25084 10.46986 8.32486 12.87416
-0.0033 0.579 0.00309 -87.97577 0 2.38998 6.80277 -3.62483 -5.31501 -38.09547 4.46117 7.12328 27.30381 -20.23787 -9.67128 12.16807 84.69963 1.75068 2.6843 32.96999 3.66077 20.24012 8.98432 -80.38848 -10.4633 2.2801 5.0832 -0.00856 19.50886 -26.31457 13.20673 -10.86538 -13.89699 0.60665 -3.94106 1.31822 -18.33346 10.52329 8.38869 12.92335
-0.00371 0.57898 0.00378 -88.13944 0 2.30297 6.88564 -3.53042 -5.28865 -38.09762 4.4937 7.18082 27.36254 -20.30955 -9.49222 12.26857 84.66818 1.72414 2.61516 32.86026 3.54062 20.35022 8.90109 -80.42376 -10.3926 2.14824 4.97374 0.08732 19.54931 -26.16183 13.18789 -10.89095 -13.80647 0.55037 -3.82328 1.4909 -18.39545 10.57732 8.45041 12.96333
-0.00413 0.57896 0.00445 -88.28324 0 2.21792 6.96279 -3.44324 -5.27041 -38.08872 4.53222 7.22571 27.41713 -20.37451 -9.31552 12.36718 84.63317 1.69942 2.55141 32.75841 3.43362 20.42781 8.83246 -80.441 -10.32866 2.0394 4.86744 0.18423 19.57676 -26.01731 13.17152 -10.91026 -13.72349 0.50336 -3.7064 1.63255 -18.46664 10.63112 8.51207 13.00703
-0.00455 0.57894 0.00514 -88.43391 0 2.12988 7.04593 -3.3487 -5.24501 -38.08849 4.56545 7.27342 27.48291 -20.44105 -9.13777 12.4684 84.59757 1.67219 2.48335 32.67385 3.32625 20.47938 8.7662 -80.51804 -10.26738 1.90243 4.75923 0.28151 19.60218 -25.8678 13.15344 -10.93758 -13.63239 0.45522 -3.58762 1.78523 -18.53907 10.68496 8.578 13.05272
-0.00498 0.57892 0.00581 -88.58003 0 2.04763 7.11879 -3.26673 -5.23087 -38.07489 4.60664 7.3213 27.52596 -20.50687 -8.96224 12.56451 84.56518 1.6497 2.42217 32.54705 3.21342 20.6061 8.68702 -80.47418 -10.19693 1.81488 4.65382 0.37723 19.6389 -25.72538 13.13789 -10.95084 -13.55523 0.40444 -3.47283 1.92998 -18.60337 10.7386 8.63454 13.09202
-0.00544 0.57889 0.00642 -88.7016 0 1.97957 7.16152 -3.22099 -5.25383 -38.01996 4.67784 7.36526 27.50772 -20.57432 -8.78367 12.64927 84.5392 1.63981 2.38072 32.31051 3.08697 20.91281 8.5807 -80.07887 -10.10279 1.87851 4.55519 0.47142 19.69864 -25.602 13.12956 -10.91937 -13.5198 0.35406 -3.36639 2.03554 -18.6558 10.79381 8.66559 13.11653
-0.0059 0.57885 0.00702 -88.81748 0 1.91767 7.19352 -3.18833 -5.28792 -37.9511 4.75634 7.40808 27.46625 -20.63924 -8.6097 12.72836 84.51636 1.63524 2.34685 32.03288 2.95709 21.2937 8.46241 -79.56447 -10.00035 1.99205 4.45993 0.56379 19.76846 -25.48671 13.12388 -10.87384 -13.49876 0.30123 -3.26436 2.13126 -18.69975 10.84839 8.68726 13.13479
-0.00636 0.57882 0.00763 -88.93758 0 1.85481 7.23003 -3.15095 -5.31546 -37.88798 4.82787 7.45005 27.43369 -20.70062 -8.44017 12.80747 84.49227 1.62868 2.31058 31.77304 2.83249 21.64481 8.34935 -79.11501 -9.90335 2.07871 4.3649 0.65542 19.83486 -25.37106 13.11781 -10.83739 -13.47104 0.24758 -3.16243 2.23293 -18.74391 10.90176 8.7133 13.15556
-0.00683 0.57879 0.00824 -89.05277 0 1.78491 7.26827 -3.10901 -5.34962 -37.8269 4.91455 7.49873 27.40742 -20.78222 -8.24189 12.89655 84.46728 1.6192 2.26949 31.51363 2.69118 21.9814 8.2361 -78.62047 -9.79906 2.18156 4.26271 0.75322 19.89924 -25.24246 13.10901 -10.7909 -13.44364 0.20117 -3.05229 2.3309 -18.80264 10.96141 8.73886 13.17749
-0.00727 0.57876 0.00883 -89.17558 0 1.73013 7.30041 -3.07853 -5.37182 -37.75945 4.97143 7.53283 27.36344 -20.82105 -8.10589 12.96463 84.44533 1.61839 2.24044 31.2469 2.58423 22.36585 8.12071 -78.19101 -9.70779 2.26335 4.17571 0.83824 19.9675 -25.14096 13.10552 -10.76064 -13.41893 0.13968 -2.95942 2.43294 -18.82939 11.00789 8.76313 13.19551
-0.00764 0.57873 0.00939 -89.32611 0 1.72504 7.31658 -3.0882 -5.36738 -37.66446 4.94518 7.52628 27.26769 -20.74109 -8.12969 12.96765 84.42624 1.62895 2.24163 30.94391 2.57344 22.85272 8.00406 -77.97424 -9.6582 2.27188 4.13502 0.88385 20.06403 -25.12983 13.12542 -10.78955 -13.40031 0.03451 -2.9213 2.55183 -18.76888 11.01748 8.78703 13.20539
-0.00799 0.5787 0.00992 -89.48282 0 1.73348 7.32717 -3.10705 -5.3492 -37.5654 4.88852 7.50485 27.15613 -20.61824 -8.21761 12.95233 84.4108 1.65 2.25455 30.63948 2.59766 23.38564 7.88578 -77.82645 -9.62154 2.25812 4.10859 0.91729 20.16026 -25.14284 13.14907 -10.83345 -13.38368 -0.08509 -2.89917 2.67377 -18.67678 11.01389 8.80974 13.21137
-0.00833 0.57868 0.01044 -89.63371 0 1.72921 7.34153 -3.11385 -5.33107 -37.47755 4.8453 7.49086 27.05788 -20.51598 -8.28404 12.94965 84.39691 1.67386 2.26337 30.35364 2.60541 23.9063 7.76694 -77.6443 -9.57641 2.25678 4.07225 0.95958 20.24335 -25.13297 13.1646 -10.86301 -13.36458 -0.19635 -2.86404 2.79248 -18.59987 11.01685 8.83246 13.2185
-0.00872 0.57862 0.01102 -89.79923 0 1.75174 7.35069 -3.15355 -5.33828 -37.35193 4.80413 7.47499 26.93452 -20.40952 -8.32031 12.9244 84.37013 1.66659 2.26881 29.99277 2.61436 24.39836 7.65204 -77.47011 -9.54128 2.24789 4.05046 0.98873 20.38278 -25.17226 13.20641 -10.92287 -13.35205 -0.31551 -2.85216 2.92056 -18.51905 11.01766 8.85726 13.22814
-0.00901 0.57864 0.01149 -89.93318 0 1.72296 7.36901 -3.12776 -5.2908 -37.30139 4.75113 7.45826 26.85807 -20.30102 -8.43209 12.94713 84.37033 1.72573 2.28205 29.78571 2.63046 24.95326 7.53009 -77.29803 -9.48934 2.24827 4.00178 1.04119 20.40473 -25.11653 13.19549 -10.9246 -13.32681 -0.42126 -2.79699 3.0276 -18.43909 11.01951 8.87735 13.23158
-0.00905 0.57889 0.01171 -90.00084 0 1.53735 7.4181 -2.90973 -5.08274 -37.4836 4.67531 7.45373 26.93074 -20.20314 -8.7581 13.06822 84.44968 1.97334 2.33027 30.02729 2.64626 25.72682 7.3775 -77.10924 -9.38067 2.28391 3.87456 1.17123 20.10154 -24.77758 13.02818 -10.75146 -13.25995 -0.48932 -2.6065 3.09588 -18.36847 11.03022 8.88676 13.21992
-0.009 0.57921 0.01185 -90.03242 0 1.30183 7.47587 -2.62705 -4.82242 -37.73725 4.58836 7.44702 27.04763 -20.10398 -9.15406 13.24979 84.5548 2.2861 2.38276 30.41979 2.66986 26.55088 7.22015 -76.92204 -9.25598 2.32866 3.71994 1.32319 19.68025 -24.34495 12.80952 -10.52137 -13.18124 -0.54282 -2.37415 3.13921 -18.29999 11.0419 8.89111 13.20201
-0.00898 0.57949 0.01202 -90.06574 0 1.09683 7.52704 -2.37998 -4.59449 -37.94196 4.50465 7.43384 27.13499 -20.00117 -9.50364 13.42354 84.6447 2.56377 2.42271 30.72764 2.69783 27.31478 7.07259 -76.73817 -9.14343 2.36618 3.57828 1.45849 19.31347 -23.96495 12.62083 -10.3244 -13.11191 -0.6011 -2.16864 3.18079 -18.23112 11.05138 8.8965 13.18622
-0.00898 0.5798 0.01217 -90.16082 0 0.85908 7.58926 -2.10717 -4.32983 -38.2151 4.42673 7.45076 27.26453 -19.91327 -9.9162 13.49589 84.75035 2.86433 2.50825 31.1022 2.69495 28.23843 6.89255 -76.53873 -9.01102 2.41581 3.43479 1.62188 18.94302 -23.5433 12.40426 -10.09733 -13.02601 -0.66768 -1.93042 3.2776 -18.15875 11.06795 8.90723 13.17316
-0.00892 0.58007 0.01236 -90.11904 0 0.67767 7.63053 -1.8722 -4.12919 -38.36392 4.33552 7.40578 27.31329 -19.79642 -10.21445 13.81627 84.82823 3.13336 2.49914 31.37496 2.75607 28.83949 6.77934 -76.37222 -8.91574 2.44289 3.28868 1.73185 18.55232 -23.1859 12.23353 -9.91928 -12.97154 -0.71327 -1.75052 3.25357 -18.09451 11.07 8.90558 13.15319
-0.00875 0.58019 0.01268 -89.70444 0 0.66257 7.61238 -1.76003 -4.12013 -38.14191 4.20136 7.18059 27.1593 -19.58355 -10.17063 14.62109 84.83219 3.29036 2.23254 31.31891 3.00657 28.54772 6.84932 -76.28715 -8.92893 2.40369 3.13973 1.69142 18.13338 -23.02828 12.20159 -9.89024 -13.00881 -0.70489 -1.73892 2.90053 -18.05321 11.03329 8.8718 13.11367
-0.00852 0.58026 0.01304 -89.15413 0 0.70604 7.57274 -1.6876 -4.17692 -37.79436 4.0558 6.89498 26.91671 -19.34436 -10.01113 15.71094 84.80581 3.41358 1.86983 31.15731 3.31864 27.92772 6.98713 -76.23635 -8.97958 2.34198 2.98954 1.59618 17.69845 -22.93863 12.21756 -9.91244 -13.07776 -0.67573 -1.78784 2.42717 -18.02003 10.98176 8.82561 13.06772
-0.00831 0.58035 0.01338 -88.66821 0 0.72365 7.54264 -1.59542 -4.2024 -37.51074 3.92175 6.64366 26.69443 -19.12883 -9.90991 16.78868 84.78705 3.55993 1.54748 31.051 3.59238 27.45062 7.0956 -76.17571 -9.01172 2.29178 2.84125 1.52435 17.27153 -22.81796 12.21185 -9.91134 -13.13084 -0.65576 -1.8111 2.00958 -17.98261 10.93602 8.78456 13.02617
